<svg width="56" height="56" viewBox="0 0 56 56" fill="none" xmlns="http://www.w3.org/2000/svg">
	<style>
		
	</style>
	<mask id='mask'>
		<rect x="0" y="0" width="100" height="100" fill="red" />
		<path
		d="M44.2251 0H11.7749C5.27181 0 0 5.27181 0 11.7749V44.2251C0 50.7282 5.27181 56 11.7749 56H44.2251C50.7282 56 56 50.7282 56 44.2251V11.7749C56 5.27181 50.7282 0 44.2251 0Z"
		fill="#111111" />
	</mask>
	
	<path
		d="M29.6371 45.4856V25.3176H30.0522L33.3264 45.4856H43.395V10.5144H35.5707V11.7749V29.6986H35.1403L32.0198 10.5144H22.2278V45.4856H29.6371Z"
		fill="white" />
	<path
		d="M12.2207 35.5092C12.067 35.5092 11.9133 35.5092 11.7442 35.4631C11.0371 35.3401 10.4068 34.9405 9.99177 34.3563C9.57673 33.7568 9.42301 33.0497 9.54598 32.3426L11.2062 22.935C11.4367 21.6437 12.5589 20.7061 13.8655 20.7061C14.0192 20.7061 14.1729 20.7061 14.342 20.7522C15.0491 20.8751 15.6794 21.2748 16.0944 21.859C16.5095 22.4431 16.6632 23.1656 16.5402 23.8727L14.88 33.2803C14.6495 34.5715 13.5273 35.5092 12.2207 35.5092Z"
		fill="white" />
</svg>